<?xml version="1.0" encoding="UTF-8" standalone="no"?>
<!DOCTYPE svg PUBLIC "-//W3C//DTD SVG 1.1//EN" "http://www.w3.org/Graphics/SVG/1.1/DTD/svg11.dtd">
<svg width="100%" height="100%" viewBox="0 0 1920 513" version="1.1" xmlns="http://www.w3.org/2000/svg" xmlns:xlink="http://www.w3.org/1999/xlink" xml:space="preserve" xmlns:serif="http://www.serif.com/" style="fill-rule:evenodd;clip-rule:evenodd;stroke-linejoin:round;stroke-miterlimit:2;">
    <g id="Artboard1" transform="matrix(0.947503,0,0,1.219856,0,-1048.052611)">
        <rect x="0" y="859.161" width="2026.379" height="419.753" style="fill:none;"/>
        <g transform="matrix(1.055406,0,0,0.819769,-81.13842,364.724006)">
            <g transform="matrix(1,0,0,1,1232.581931,439.654188)">
                <g transform="matrix(355.555556,0,0,355.555556,251.35972,520.723444)">
                    <path d="M0.062,-0L0.062,-0.51L0.164,-0.51L0.164,-0.44L0.17,-0.44C0.185,-0.465 0.206,-0.486 0.235,-0.502C0.265,-0.518 0.296,-0.526 0.331,-0.526C0.393,-0.526 0.441,-0.507 0.472,-0.47C0.504,-0.433 0.519,-0.384 0.519,-0.322L0.519,-0L0.412,-0L0.412,-0.308C0.412,-0.349 0.401,-0.379 0.381,-0.398C0.361,-0.417 0.334,-0.427 0.3,-0.427C0.274,-0.427 0.252,-0.42 0.232,-0.405C0.213,-0.391 0.197,-0.372 0.186,-0.349C0.176,-0.326 0.17,-0.301 0.17,-0.274L0.17,-0L0.062,-0Z" style="fill-rule:nonzero;"/>
                </g>
                <g transform="matrix(355.555556,0,0,355.555556,456.870832,520.723444)">
                    <path d="M0.295,0.016C0.245,0.016 0.2,0.004 0.161,-0.019C0.122,-0.042 0.091,-0.074 0.068,-0.115C0.046,-0.156 0.035,-0.202 0.035,-0.254C0.035,-0.303 0.046,-0.348 0.067,-0.389C0.089,-0.43 0.119,-0.464 0.157,-0.488C0.195,-0.513 0.239,-0.526 0.289,-0.526C0.342,-0.526 0.387,-0.515 0.424,-0.492C0.46,-0.469 0.489,-0.438 0.508,-0.399C0.528,-0.36 0.537,-0.316 0.537,-0.266C0.537,-0.259 0.537,-0.252 0.537,-0.246C0.536,-0.24 0.536,-0.235 0.535,-0.232L0.096,-0.232L0.096,-0.313L0.43,-0.313C0.429,-0.326 0.426,-0.339 0.42,-0.353C0.414,-0.367 0.405,-0.381 0.394,-0.393C0.382,-0.405 0.368,-0.415 0.351,-0.423C0.334,-0.43 0.314,-0.434 0.29,-0.434C0.261,-0.434 0.235,-0.427 0.212,-0.411C0.189,-0.396 0.172,-0.375 0.159,-0.349C0.147,-0.322 0.14,-0.292 0.14,-0.256C0.14,-0.218 0.148,-0.185 0.162,-0.159C0.177,-0.133 0.196,-0.113 0.22,-0.1C0.244,-0.087 0.27,-0.08 0.298,-0.08C0.332,-0.08 0.361,-0.088 0.384,-0.104C0.407,-0.12 0.425,-0.139 0.438,-0.162L0.527,-0.119C0.505,-0.079 0.475,-0.046 0.437,-0.021C0.399,0.004 0.352,0.016 0.295,0.016Z" style="fill-rule:nonzero;"/>
                </g>
                <g transform="matrix(355.555556,0,0,355.555556,660.248609,520.723444)">
                </g>
            </g>
            <g transform="matrix(1,0,0,1,-93.768207,439.995877)">
                <g transform="matrix(355.555556,0,0,355.555556,251.35972,520.723444)">
                    <path d="M0.288,0.016C0.25,0.016 0.214,0.009 0.179,-0.006C0.144,-0.021 0.114,-0.044 0.088,-0.073C0.062,-0.103 0.042,-0.139 0.03,-0.182L0.133,-0.224C0.144,-0.185 0.162,-0.153 0.189,-0.127C0.216,-0.101 0.249,-0.088 0.289,-0.088C0.312,-0.088 0.333,-0.092 0.353,-0.1C0.372,-0.108 0.388,-0.12 0.4,-0.136C0.412,-0.152 0.418,-0.171 0.418,-0.193C0.418,-0.214 0.413,-0.232 0.403,-0.247C0.393,-0.262 0.377,-0.276 0.355,-0.288C0.333,-0.3 0.305,-0.313 0.271,-0.325L0.226,-0.341C0.206,-0.348 0.187,-0.357 0.167,-0.368C0.146,-0.379 0.128,-0.392 0.112,-0.408C0.095,-0.423 0.082,-0.442 0.072,-0.463C0.061,-0.484 0.057,-0.509 0.057,-0.537C0.057,-0.573 0.066,-0.605 0.085,-0.635C0.104,-0.664 0.13,-0.688 0.164,-0.706C0.198,-0.723 0.237,-0.732 0.281,-0.732C0.327,-0.732 0.366,-0.724 0.397,-0.708C0.427,-0.691 0.452,-0.672 0.469,-0.649C0.487,-0.626 0.499,-0.604 0.506,-0.584L0.407,-0.542C0.403,-0.556 0.396,-0.569 0.386,-0.583C0.375,-0.596 0.362,-0.608 0.345,-0.616C0.328,-0.625 0.307,-0.63 0.282,-0.63C0.261,-0.63 0.241,-0.626 0.224,-0.618C0.206,-0.61 0.192,-0.599 0.181,-0.586C0.17,-0.572 0.165,-0.556 0.165,-0.538C0.165,-0.512 0.176,-0.491 0.197,-0.475C0.218,-0.459 0.249,-0.444 0.29,-0.43L0.336,-0.414C0.359,-0.406 0.382,-0.397 0.405,-0.386C0.427,-0.375 0.448,-0.36 0.467,-0.343C0.485,-0.326 0.5,-0.306 0.512,-0.282C0.523,-0.258 0.528,-0.229 0.528,-0.195C0.528,-0.158 0.521,-0.127 0.507,-0.1C0.492,-0.073 0.473,-0.051 0.449,-0.034C0.426,-0.017 0.4,-0.004 0.371,0.004C0.343,0.012 0.315,0.016 0.288,0.016Z" style="fill-rule:nonzero;"/>
                </g>
                <g transform="matrix(355.555556,0,0,355.555556,453.315276,520.723444)">
                    <path d="M0.298,0.016C0.247,0.016 0.202,0.004 0.162,-0.019C0.122,-0.042 0.091,-0.075 0.069,-0.116C0.046,-0.157 0.035,-0.203 0.035,-0.255C0.035,-0.307 0.046,-0.354 0.069,-0.395C0.091,-0.435 0.122,-0.467 0.162,-0.491C0.202,-0.514 0.247,-0.526 0.298,-0.526C0.355,-0.526 0.403,-0.513 0.442,-0.488C0.48,-0.463 0.508,-0.429 0.525,-0.386L0.427,-0.345C0.415,-0.372 0.398,-0.393 0.376,-0.406C0.354,-0.42 0.327,-0.427 0.296,-0.427C0.268,-0.427 0.242,-0.42 0.219,-0.405C0.196,-0.391 0.177,-0.371 0.163,-0.346C0.149,-0.32 0.142,-0.29 0.142,-0.255C0.142,-0.22 0.149,-0.19 0.163,-0.164C0.177,-0.138 0.196,-0.118 0.219,-0.104C0.242,-0.09 0.268,-0.083 0.296,-0.083C0.329,-0.083 0.356,-0.09 0.379,-0.105C0.402,-0.12 0.419,-0.141 0.432,-0.167L0.528,-0.126C0.51,-0.085 0.481,-0.051 0.442,-0.024C0.403,0.003 0.355,0.016 0.298,0.016Z" style="fill-rule:nonzero;"/>
                </g>
                <g transform="matrix(355.555556,0,0,355.555556,646.381943,520.723444)">
                    <path d="M0.302,0.016C0.25,0.016 0.203,0.004 0.163,-0.02C0.123,-0.044 0.092,-0.076 0.069,-0.117C0.046,-0.158 0.035,-0.204 0.035,-0.255C0.035,-0.306 0.046,-0.352 0.069,-0.393C0.092,-0.434 0.123,-0.466 0.163,-0.49C0.203,-0.514 0.25,-0.526 0.302,-0.526C0.354,-0.526 0.4,-0.514 0.44,-0.49C0.48,-0.465 0.512,-0.433 0.534,-0.392C0.557,-0.351 0.568,-0.306 0.568,-0.255C0.568,-0.204 0.557,-0.158 0.534,-0.117C0.512,-0.076 0.48,-0.044 0.44,-0.02C0.4,0.004 0.354,0.016 0.302,0.016ZM0.302,-0.083C0.33,-0.083 0.356,-0.09 0.38,-0.104C0.404,-0.117 0.424,-0.137 0.438,-0.163C0.453,-0.188 0.461,-0.219 0.461,-0.255C0.461,-0.291 0.453,-0.322 0.438,-0.347C0.424,-0.373 0.404,-0.393 0.38,-0.406C0.356,-0.42 0.33,-0.427 0.302,-0.427C0.274,-0.427 0.248,-0.42 0.224,-0.406C0.199,-0.393 0.179,-0.373 0.165,-0.347C0.15,-0.322 0.142,-0.291 0.142,-0.255C0.142,-0.219 0.15,-0.188 0.165,-0.162C0.179,-0.137 0.199,-0.117 0.224,-0.104C0.248,-0.09 0.274,-0.083 0.302,-0.083Z" style="fill-rule:nonzero;"/>
                </g>
                <g transform="matrix(355.555556,0,0,355.555556,860.781943,520.723444)">
                    <path d="M0.062,0.216L0.062,-0.51L0.164,-0.51L0.164,-0.441L0.17,-0.441C0.179,-0.456 0.192,-0.469 0.207,-0.482C0.223,-0.495 0.241,-0.506 0.263,-0.514C0.284,-0.522 0.308,-0.526 0.334,-0.526C0.381,-0.526 0.422,-0.514 0.459,-0.491C0.496,-0.468 0.525,-0.436 0.547,-0.396C0.568,-0.355 0.579,-0.308 0.579,-0.255C0.579,-0.202 0.568,-0.155 0.547,-0.115C0.525,-0.074 0.496,-0.042 0.459,-0.019C0.422,0.004 0.381,0.016 0.334,0.016C0.295,0.016 0.262,0.007 0.233,-0.01C0.205,-0.027 0.184,-0.046 0.17,-0.068L0.164,-0.068L0.17,0.003L0.17,0.216L0.062,0.216ZM0.318,-0.083C0.345,-0.083 0.37,-0.09 0.394,-0.104C0.417,-0.118 0.436,-0.138 0.45,-0.164C0.464,-0.19 0.472,-0.22 0.472,-0.255C0.472,-0.29 0.464,-0.321 0.45,-0.346C0.436,-0.372 0.417,-0.392 0.394,-0.406C0.37,-0.42 0.345,-0.427 0.318,-0.427C0.291,-0.427 0.266,-0.42 0.243,-0.406C0.219,-0.392 0.201,-0.372 0.186,-0.346C0.172,-0.32 0.164,-0.29 0.164,-0.255C0.164,-0.22 0.172,-0.19 0.186,-0.164C0.201,-0.138 0.219,-0.118 0.243,-0.104C0.266,-0.09 0.291,-0.083 0.318,-0.083Z" style="fill-rule:nonzero;"/>
                </g>
                <g transform="matrix(355.555556,0,0,355.555556,1079.093054,520.723444)">
                    <path d="M0.295,0.016C0.245,0.016 0.2,0.004 0.161,-0.019C0.122,-0.042 0.091,-0.074 0.068,-0.115C0.046,-0.156 0.035,-0.202 0.035,-0.254C0.035,-0.303 0.046,-0.348 0.067,-0.389C0.089,-0.43 0.119,-0.464 0.157,-0.488C0.195,-0.513 0.239,-0.526 0.289,-0.526C0.342,-0.526 0.387,-0.515 0.424,-0.492C0.46,-0.469 0.489,-0.438 0.508,-0.399C0.528,-0.36 0.537,-0.316 0.537,-0.266C0.537,-0.259 0.537,-0.252 0.537,-0.246C0.536,-0.24 0.536,-0.235 0.535,-0.232L0.096,-0.232L0.096,-0.313L0.43,-0.313C0.429,-0.326 0.426,-0.339 0.42,-0.353C0.414,-0.367 0.405,-0.381 0.394,-0.393C0.382,-0.405 0.368,-0.415 0.351,-0.423C0.334,-0.43 0.314,-0.434 0.29,-0.434C0.261,-0.434 0.235,-0.427 0.212,-0.411C0.189,-0.396 0.172,-0.375 0.159,-0.349C0.147,-0.322 0.14,-0.292 0.14,-0.256C0.14,-0.218 0.148,-0.185 0.162,-0.159C0.177,-0.133 0.196,-0.113 0.22,-0.1C0.244,-0.087 0.27,-0.08 0.298,-0.08C0.332,-0.08 0.361,-0.088 0.384,-0.104C0.407,-0.12 0.425,-0.139 0.438,-0.162L0.527,-0.119C0.505,-0.079 0.475,-0.046 0.437,-0.021C0.399,0.004 0.352,0.016 0.295,0.016Z" style="fill-rule:nonzero;"/>
                </g>
                <g transform="matrix(355.555556,0,0,355.555556,1282.470832,520.723444)">
                </g>
            </g>
            <g transform="matrix(0.130091,0,0,0.130091,1202.702539,700.185867)">
                <g transform="matrix(0.779318,0,0,0.779318,-946.792259,-636.350118)">
                    <circle cx="2528.867" cy="2130.516" r="492.738" style="fill:rgb(0,90,255);"/>
                </g>
                <g transform="matrix(2.078182,0,0,2.078182,-4231.446025,-3403.600314)">
                    <path d="M2528.867,1637.778C2800.817,1637.778 3021.605,1858.566 3021.605,2130.516C3021.605,2402.466 2800.817,2623.254 2528.867,2623.254C2256.917,2623.254 2036.129,2402.466 2036.129,2130.516C2036.129,1858.566 2256.917,1637.778 2528.867,1637.778ZM2528.867,1773.459C2725.932,1773.459 2885.924,1933.451 2885.924,2130.516C2885.924,2327.581 2725.932,2487.573 2528.867,2487.573C2331.802,2487.573 2171.81,2327.581 2171.81,2130.516C2171.81,1933.451 2331.802,1773.459 2528.867,1773.459Z" style="fill:rgb(0,90,255);"/>
                </g>
            </g>
        </g>
    </g>
</svg>
